<?xml version="1.0" standalone="no"?>
<!DOCTYPE svg PUBLIC "-//W3C//DTD SVG 20010904//EN"
 "http://www.w3.org/TR/2001/REC-SVG-20010904/DTD/svg10.dtd">
<svg version="1.0" xmlns="http://www.w3.org/2000/svg"
 width="500.000000pt" height="500.000000pt" viewBox="0 0 500.000000 500.000000"
 preserveAspectRatio="xMidYMid meet">

<g transform="translate(0.000000,500.000000) scale(0.100000,-0.100000)"
fill="#000000" stroke="none">
<path d="M2401 4134 c-16 -20 -21 -41 -21 -85 0 -57 0 -57 -32 -64 -82 -18
-122 -52 -207 -177 -48 -70 -60 -80 -134 -120 l-82 -43 43 -3 c41 -3 53 -14
31 -28 -6 -3 -20 -27 -31 -51 -17 -39 -19 -57 -13 -139 4 -51 4 -114 1 -139
l-7 -45 -36 15 c-20 9 -74 22 -119 30 -44 8 -98 24 -118 36 l-37 22 -29 -28
c-15 -14 -42 -55 -60 -90 -26 -52 -31 -68 -23 -91 12 -37 27 -40 41 -10 6 13
31 36 56 51 43 25 48 26 103 15 32 -7 92 -26 133 -42 41 -16 93 -33 114 -38
37 -8 42 -7 70 24 17 18 42 63 55 100 13 37 27 64 31 59 4 -4 14 -30 23 -56
15 -45 15 -49 -4 -81 -37 -63 -100 -240 -106 -298 l-6 -58 121 0 c78 0 123 4
128 11 9 15 -10 25 -64 33 -66 9 -72 17 -56 75 15 59 40 109 104 207 28 42 50
82 50 89 0 21 -37 118 -71 187 -30 62 -32 69 -21 106 16 53 66 107 90 96 26
-11 216 -21 223 -11 3 4 32 7 64 5 l59 -3 22 -85 c138 -539 136 -527 119 -561
-50 -95 74 -195 158 -129 32 25 50 82 36 117 -5 13 -9 26 -9 29 0 2 38 4 85 4
l85 0 -11 -27 c-39 -103 94 -191 172 -114 23 23 29 38 29 71 0 43 -20 83 -48
97 -9 4 -113 10 -231 13 l-215 5 -13 50 c-7 28 -13 56 -13 63 0 9 63 12 284
12 262 0 285 1 290 18 3 9 24 87 46 172 22 85 43 163 46 173 5 16 -18 17 -384
17 l-389 0 -13 60 -13 60 -68 0 c-37 0 -71 5 -74 10 -3 6 -26 10 -51 10 -52 0
-112 22 -120 45 -4 9 0 23 8 33 20 23 38 78 38 117 0 41 37 77 75 73 24 -3 29
1 37 30 5 17 12 32 16 32 4 0 7 30 6 66 -1 58 -4 69 -25 85 -15 12 -41 19 -71
19 -39 0 -50 -5 -67 -26z m679 -714 l0 -61 -82 3 c-90 3 -81 -4 -101 80 l-7
27 82 4 c46 1 89 4 96 5 8 1 12 -16 12 -58z m225 24 c-15 -84 -15 -84 -110
-84 l-85 0 0 60 0 60 101 0 101 0 -7 -36z m130 0 c-14 -76 -20 -84 -70 -84
-51 0 -52 3 -34 76 l11 44 50 0 50 0 -7 -36z m-565 -4 c4 -14 10 -38 14 -53
l7 -28 -63 3 c-67 3 -61 -3 -82 81 l-7 28 63 -3 c56 -3 62 -5 68 -28z m538
-112 c-3 -7 -13 -43 -23 -80 l-18 -68 -48 0 c-29 0 -49 5 -49 11 0 9 23 97 35
137 3 7 23 12 56 12 37 0 50 -4 47 -12z m-494 -63 c9 -35 16 -69 16 -75 0 -7
-21 -10 -57 -8 l-57 3 -18 55 c-27 89 -27 90 41 90 l59 0 16 -65z m166 -10 l0
-76 -57 3 -57 3 -12 40 c-6 22 -15 55 -18 73 l-8 32 76 0 76 0 0 -75z m185 39
c-3 -20 -12 -53 -18 -73 -12 -36 -12 -36 -75 -39 l-62 -3 0 76 0 75 81 0 81 0
-7 -36z m-327 -340 c27 -18 30 -69 5 -96 -36 -40 -105 -9 -105 47 0 55 54 81
100 49z m352 -4 c39 -39 11 -110 -45 -110 -27 0 -65 35 -65 61 0 27 39 69 66
69 13 0 33 -9 44 -20z"/>
<path d="M1195 2448 c11 -6 23 -16 27 -22 4 -6 8 -77 8 -157 0 -147 -5 -169
-40 -183 -8 -3 35 -4 97 -3 129 2 161 17 177 80 12 45 -10 82 -61 104 l-36 14
31 19 c58 36 54 111 -8 142 -42 21 -232 27 -195 6z m170 -23 c52 -51 16 -145
-55 -145 l-30 0 0 79 c0 54 4 81 13 84 27 11 49 6 72 -18z m23 -175 c30 -28
31 -101 2 -130 -22 -22 -59 -34 -87 -28 -15 3 -18 15 -21 91 l-3 87 44 0 c30
0 50 -6 65 -20z"/>
<path d="M2889 2437 c-103 -68 -106 -274 -5 -337 52 -31 113 -35 161 -10 37
19 41 19 52 3 11 -14 13 -6 13 50 0 37 -2 67 -5 67 -2 0 -9 -18 -15 -40 -13
-49 -41 -76 -86 -85 -70 -13 -128 45 -140 142 -13 104 31 215 89 226 19 4 19
4 -4 6 -14 0 -41 -9 -60 -22z"/>
<path d="M3017 2449 c34 -10 73 -51 73 -78 0 -9 5 -23 10 -31 7 -10 9 6 9 55
-1 39 -3 62 -6 53 -5 -21 -19 -22 -53 -3 -14 8 -34 14 -45 14 -12 -1 -8 -4 12
-10z"/>
<path d="M3707 2433 c-4 -3 -7 -23 -7 -44 0 -33 -3 -38 -27 -42 l-28 -4 26 -2
27 -1 4 -116 c3 -107 5 -117 27 -135 13 -10 32 -19 43 -19 24 0 68 43 68 67 0
14 -3 13 -13 -6 -18 -35 -42 -48 -61 -32 -13 11 -16 36 -16 127 l0 113 43 4
42 4 -42 1 -43 2 0 45 c0 37 -3 45 -18 45 -10 0 -22 -3 -25 -7z"/>
<path d="M1557 2344 c-22 -12 -28 -21 -25 -42 2 -16 10 -28 21 -30 22 -4 34
25 19 48 -12 20 1 30 43 30 32 0 47 -23 43 -67 -2 -29 -9 -40 -27 -48 -109
-45 -139 -81 -107 -130 20 -30 78 -34 115 -9 22 16 24 16 33 0 10 -18 63 -22
73 -5 4 6 0 9 -11 7 -17 -3 -19 6 -22 107 -2 96 -5 112 -24 132 -26 27 -88 31
-131 7z m103 -162 c0 -55 -23 -86 -61 -80 -55 8 -50 77 9 107 20 11 40 20 45
21 4 0 7 -22 7 -48z"/>
<path d="M1875 2353 c38 -5 55 -27 55 -70 0 -32 -4 -36 -57 -59 -32 -14 -66
-33 -75 -41 -22 -20 -23 -66 -2 -87 23 -23 87 -21 110 5 l18 20 8 -20 c5 -16
16 -21 42 -21 19 0 38 5 41 11 4 6 0 9 -11 7 -17 -3 -19 7 -24 111 -5 103 -8
115 -29 132 -15 13 -37 18 -65 18 -33 -2 -35 -3 -11 -6z m39 -235 c-12 -12
-28 -18 -48 -16 -27 3 -31 7 -34 36 -4 39 8 57 57 82 l36 18 3 -50 c2 -37 -1
-55 -14 -70z"/>
<path d="M2057 2353 c-11 -10 -8 -93 3 -93 6 0 10 9 10 20 0 12 11 32 24 45
19 19 21 25 9 29 -20 8 -38 7 -46 -1z"/>
<path d="M2193 2347 c0 -7 -27 -59 -60 -117 -33 -58 -65 -115 -72 -127 l-12
-23 101 0 100 0 -1 48 c-1 44 -1 45 -12 21 -22 -48 -37 -59 -83 -59 -24 0 -44
2 -44 4 0 2 32 59 70 126 39 67 70 126 70 131 0 5 -13 9 -28 9 -17 0 -29 -5
-29 -13z"/>
<path d="M2395 2353 c38 -5 55 -27 55 -70 0 -32 -4 -36 -57 -59 -32 -14 -66
-33 -75 -41 -22 -20 -23 -66 -2 -87 23 -23 87 -21 110 5 l18 20 8 -20 c5 -16
16 -21 42 -21 19 0 38 5 41 11 4 6 0 9 -11 7 -17 -3 -19 7 -24 111 -5 103 -8
115 -29 132 -15 13 -37 18 -65 18 -33 -2 -35 -3 -11 -6z m39 -235 c-12 -12
-28 -18 -48 -16 -27 3 -31 7 -34 36 -4 39 8 57 57 82 l36 18 3 -50 c2 -37 -1
-55 -14 -70z"/>
<path d="M2590 2350 c-19 -4 -28 -8 -19 -9 25 -2 29 -22 29 -131 0 -91 -2
-100 -22 -114 -21 -15 -18 -16 52 -16 67 0 72 2 50 13 -24 12 -25 17 -27 112
-1 55 -2 112 -2 128 -1 28 -4 29 -61 17z"/>
<path d="M2682 2344 c-12 -8 -22 -20 -22 -26 0 -6 10 -2 23 10 29 27 52 30 38
4 -12 -23 1 -45 25 -40 23 4 30 34 14 53 -16 19 -50 19 -78 -1z"/>
<path d="M3265 2353 c38 -5 55 -27 55 -70 0 -32 -4 -36 -57 -59 -32 -14 -66
-33 -75 -41 -22 -20 -23 -66 -2 -87 23 -23 87 -21 110 5 l18 20 8 -20 c5 -16
16 -21 42 -21 19 0 38 5 41 11 4 6 0 9 -11 7 -17 -3 -19 7 -24 111 -5 103 -8
115 -29 132 -15 13 -37 18 -65 18 -33 -2 -35 -3 -11 -6z m39 -235 c-12 -12
-28 -18 -48 -16 -27 3 -31 7 -34 36 -4 39 8 57 57 82 l36 18 3 -50 c2 -37 -1
-55 -14 -70z"/>
<path d="M3460 2350 c-19 -4 -28 -8 -19 -9 25 -2 29 -22 29 -131 0 -91 -2
-100 -22 -114 -21 -15 -18 -16 52 -16 67 0 72 2 50 13 -24 12 -25 17 -27 112
-1 55 -2 112 -2 128 -1 28 -4 29 -61 17z"/>
<path d="M3552 2344 c-12 -8 -22 -20 -22 -26 0 -6 10 -2 23 10 29 27 52 30 38
4 -12 -23 1 -45 25 -40 23 4 30 34 14 53 -16 19 -50 19 -78 -1z"/>
<path d="M1804 2329 c-14 -15 -16 -24 -8 -37 25 -38 67 -16 48 26 -4 9 -6 20
-6 25 3 14 -15 7 -34 -14z"/>
<path d="M2324 2329 c-14 -15 -16 -24 -8 -37 25 -38 67 -16 48 26 -4 9 -6 20
-6 25 3 14 -15 7 -34 -14z"/>
<path d="M3194 2329 c-14 -15 -16 -24 -8 -37 25 -38 67 -16 48 26 -4 9 -6 20
-6 25 3 14 -15 7 -34 -14z"/>
</g>
</svg>
