<svg width="302.95504885993483" height="225.49431950509992" viewBox="0 0 302.95504885993483 225.49431950509992" class="css-1j8o68f"><defs id="SvgjsDefs1506"></defs><g id="SvgjsG1507" featurekey="7KWit6-0" transform="matrix(3.247657391087591,0,0,3.247657391087591,-24.366493625828284,-80.61563002256734)" fill="#3fc1c9"><path xmlns="http://www.w3.org/2000/svg" d="M37.516,67.922c0.137,0.11,0.322,0.14,0.486,0.079l2.866-1.057l3.774,3.774l0.003-0.003  c0.005,0.005,0.007,0.013,0.013,0.019c0.093,0.084,0.213,0.131,0.337,0.131c0.02,0,0.041-0.001,0.061-0.004l26.203-3.203  c0.132-0.016,0.252-0.084,0.334-0.189c0.082-0.104,0.118-0.238,0.102-0.37l-3.536-28.13c-0.023-0.188-0.15-0.341-0.319-0.405v0  l-4.417-1.667c-0.057-0.021-0.116-0.032-0.177-0.032h-2.187v-3.333c0-0.082-0.02-0.162-0.058-0.234l-0.75-1.417  c-0.086-0.164-0.257-0.266-0.442-0.266h-0.242l-0.785-0.979c-0.095-0.119-0.238-0.188-0.39-0.188h-8.125  c-0.161,0-0.311,0.077-0.405,0.207l-1.25,1.729c-0.062,0.085-0.095,0.188-0.095,0.293v4.188h-0.592l-1.018-2.831  c-0.051-0.141-0.175-0.237-0.316-0.257l0,0l-3.697-0.524c-0.047-0.007-0.095-0.005-0.142,0.005l-1.688,0.377l-0.575-2.572  c-0.014-0.063-0.043-0.121-0.085-0.171l-0.824-0.964c-0.095-0.111-0.244-0.161-0.387-0.129l-0.187,0.042l-0.775-0.621  c-0.094-0.075-0.216-0.103-0.333-0.077l-6.271,1.403c-0.124,0.028-0.227,0.113-0.277,0.23l-0.667,1.55  c-0.033,0.077-0.041,0.162-0.022,0.242l0.723,3.232l-5.097,1.14l0.001,0.005c-0.067,0.016-0.131,0.042-0.183,0.09  c-0.09,0.083-0.136,0.203-0.126,0.325l2.055,23.988c0.012,0.139,0.096,0.26,0.22,0.321c0.125,0.062,0.273,0.053,0.389-0.022  l2.03-1.311l3.564,2.262l0.001-0.002c0.005,0.003,0.008,0.008,0.014,0.012c0.086,0.049,0.187,0.064,0.283,0.042  c0.016-0.003,0.031-0.008,0.046-0.013l3.58-1.273l-0.826,6.101C37.31,67.639,37.379,67.813,37.516,67.922z M44.885,58.133  l-0.027,0.849l-0.326,10.213l-3.184-3.184c-0.138-0.139-0.345-0.183-0.526-0.116l-2.387,0.88l0.784-5.789l0.119-0.881l2.982-22.034  l3.164,1.292L44.885,58.133z M61.058,37.865h2.096l1.767,0.667h-3.863V37.865z M67.221,39.532l3.418,27.195l-25.126,3.071  l0.356-11.176l0.027-0.849l0.582-18.241H67.221z M58.743,37.865v0.667h-6.35l0.002-0.667H58.743z M52.398,36.865l0.008-2.693  l0.365-0.365l4.558-0.019v3.077H52.398z M58.329,36.865v-3.081l0.245-0.001l0.169,0.36v2.722H58.329z M59.507,32.615l0.551,1.041  v4.876h-0.315v-4.5c0-0.073-0.016-0.146-0.047-0.212l-0.352-0.75c-0.082-0.175-0.259-0.288-0.453-0.288c0,0-0.001,0-0.001,0  l-6.328,0.026c-0.132,0-0.258,0.053-0.352,0.146l-0.656,0.656c-0.093,0.093-0.146,0.22-0.146,0.352l-0.009,2.902l-0.003,1  l-0.002,0.667h-0.418v-4.992l0.74-0.925H59.507z M49.516,32.839l1.005-1.391h7.629l0.133,0.167h-6.81  c-0.152,0-0.295,0.069-0.391,0.188l-1,1.25c-0.071,0.089-0.109,0.199-0.109,0.313v3.5h-0.458V32.839z M49.975,37.865v0.667h-3.881  l-1.634-0.667H49.975z M42.853,34.046l1.479,0.209l-2.982,0.667l-0.115-0.515L42.853,34.046z M39.132,30.623l0.605,0.709  l0.554,2.477l0.172,0.772l0.115,0.515l-0.243,0.054l-0.116-0.515l-0.172-0.772l-0.489-2.187c-0.013-0.056-0.038-0.11-0.073-0.156  l-0.4-0.518c-0.094-0.121-0.25-0.177-0.4-0.144c0,0,0,0-0.001,0l-4.879,1.112c-0.102,0.023-0.19,0.086-0.246,0.174l-0.394,0.62  c-0.056,0.087-0.075,0.194-0.052,0.297l0.494,2.241l0.17,0.773l0.114,0.515l-0.323,0.073l-0.115-0.515l-0.173-0.772l-0.574-2.566  l0.412-0.842L39.132,30.623z M39.448,34.808l0.116,0.515l-4.901,1.096l-0.114-0.515L39.448,34.808z M34.378,35.131L33.92,33.05  l0.219-0.344l3.514-0.801l0.531,2.375L34.378,35.131z M38.424,31.729l0.189-0.042l0.193,0.248l0.469,2.101l-0.319,0.071  L38.424,31.729z M31.995,31.274l5.889-1.317l0.132,0.106l-5.256,1.175c-0.117,0.026-0.216,0.104-0.27,0.212l-0.556,1.138  c-0.04,0.081-0.05,0.172-0.031,0.26l0.604,2.701l-0.354,0.079l-0.695-3.107L31.995,31.274z M32.681,36.321l0.115,0.515l-2.996,0.67  l-1.376-0.233L32.681,36.321z M30.881,59.534c-0.13-0.083-0.298-0.082-0.426,0.001l-1.691,1.091l-1.955-22.825l2.665,0.451  l4.415,23.189L30.881,59.534z M34.749,61.738l-4.479-23.527l3.084-0.69l1.093-0.244l5.674-1.269l1.016-0.227l5.143-1.15l0.803,2.235  h-5.171v0.006c-0.087,0-0.173,0.016-0.25,0.061c-0.134,0.077-0.224,0.212-0.245,0.366l-3.138,23.185L34.749,61.738z M82.172,44.906"></path></g><g id="SvgjsG1508" featurekey="ewgXDI-0" transform="matrix(2.7541366167958183,0,0,2.7541366167958183,-2.809217326688731,169.86075774458493)" fill="#364f6b"><path d="M6.86 9.42 c2.38 0 5.12 1.78 5.12 5.36 c0 3.72 -2.74 5.42 -5.12 5.42 c-1.6 0 -2.54 -0.88 -2.68 -1.24 l0 1.04 l-3.16 0 l0 -10.4 l0 -3.74 l3.16 0 l0 4.7 c0.14 -0.22 1.08 -1.14 2.68 -1.14 z M6.4 17.42 c1.36 0 2.52 -0.92 2.52 -2.64 c0 -1.66 -1.16 -2.58 -2.52 -2.58 c-1.3 0 -2.36 0.9 -2.36 2.58 c0 1.74 1.06 2.64 2.36 2.64 z M21.18 9.6 l3.16 0 l0 10.4 l-3.16 0 l0 -1.04 c-0.14 0.36 -1.08 1.24 -2.68 1.24 c-2.38 0 -5.12 -1.7 -5.12 -5.42 c0 -3.58 2.74 -5.36 5.12 -5.36 c1.6 0 2.54 0.92 2.68 1.14 l0 -0.96 z M18.96 17.42 c1.3 0 2.36 -0.9 2.36 -2.64 c0 -1.68 -1.06 -2.58 -2.36 -2.58 c-1.36 0 -2.52 0.92 -2.52 2.58 c0 1.72 1.16 2.64 2.52 2.64 z M33.86 9.6 l3.16 0 l0 10.4 l-3.16 0 l0 -1.04 c-0.14 0.36 -1.08 1.24 -2.68 1.24 c-2.38 0 -5.12 -1.7 -5.12 -5.42 c0 -3.58 2.74 -5.36 5.12 -5.36 c1.6 0 2.54 0.92 2.68 1.14 l0 -0.96 z M31.64 17.42 c1.3 0 2.36 -0.9 2.36 -2.64 c0 -1.68 -1.06 -2.58 -2.36 -2.58 c-1.36 0 -2.52 0.92 -2.52 2.58 c0 1.72 1.16 2.64 2.52 2.64 z M48.58 9.6 l-5 7.64 l4.66 0 l0 2.76 l-9.7 0 l5 -7.64 l-4.54 0 l0 -2.76 l9.58 0 z M56.98 9.6 l3.16 0 l0 10.4 l-3.16 0 l0 -1.04 c-0.14 0.36 -1.08 1.24 -2.68 1.24 c-2.38 0 -5.12 -1.7 -5.12 -5.42 c0 -3.58 2.74 -5.36 5.12 -5.36 c1.6 0 2.54 0.92 2.68 1.14 l0 -0.96 z M54.76 17.42 c1.3 0 2.36 -0.9 2.36 -2.64 c0 -1.68 -1.06 -2.58 -2.36 -2.58 c-1.36 0 -2.52 0.92 -2.52 2.58 c0 1.72 1.16 2.64 2.52 2.64 z M68.86 9.44 c0.28 0 0.56 0 0.82 0.06 l0 3.02 c-0.24 -0.06 -0.52 -0.06 -0.72 -0.06 c-1.92 0 -3.46 1.38 -3.62 3.3 l0 4.24 l-3.16 0 l0 -10.4 l3.16 0 l0 2.54 c0.48 -1.56 1.68 -2.7 3.52 -2.7 z M76.42 9.42 c1.9 0 3.5 0.8 4.48 2.48 l-2.4 1.14 c-0.52 -0.44 -0.94 -0.84 -2.04 -0.84 c-1.2 0 -2.42 0.92 -2.42 2.62 c0 1.68 1.22 2.56 2.42 2.56 c1.1 0 1.52 -0.36 2.04 -0.8 l2.44 1.14 c-1.02 1.68 -2.58 2.44 -4.52 2.44 c-2.32 0 -5.44 -1.66 -5.44 -5.34 c0 -3.62 3.12 -5.4 5.44 -5.4 z M90.04 9.6 l3.16 0 l0 10.4 l-3.16 0 l0 -1.04 c-0.14 0.36 -1.08 1.24 -2.68 1.24 c-2.38 0 -5.12 -1.7 -5.12 -5.42 c0 -3.58 2.74 -5.36 5.12 -5.36 c1.6 0 2.54 0.92 2.68 1.14 l0 -0.96 z M87.82000000000001 17.42 c1.3 0 2.36 -0.9 2.36 -2.64 c0 -1.68 -1.06 -2.58 -2.36 -2.58 c-1.36 0 -2.52 0.92 -2.52 2.58 c0 1.72 1.16 2.64 2.52 2.64 z M101.92 9.44 c0.28 0 0.56 0 0.82 0.06 l0 3.02 c-0.24 -0.06 -0.52 -0.06 -0.72 -0.06 c-1.92 0 -3.46 1.38 -3.62 3.3 l0 4.24 l-3.16 0 l0 -10.4 l3.16 0 l0 2.54 c0.48 -1.56 1.68 -2.7 3.52 -2.7 z M109.62 17.36 c0.56 0 0.96 -0.08 1.4 -0.2 l0 2.62 c-0.44 0.2 -1.16 0.34 -2.22 0.34 c-1.74 0 -3.2 -0.58 -3.2 -3.78 l0 -4.14 l-1.46 0 l0 -2.6 l1.46 0 l0 -2.44 l3.16 0 l0 2.44 l2.22 0 l0 2.6 l-2.22 0 l0 4.14 c0 0.46 0.12 1.02 0.86 1.02 z"></path></g></svg>